<svg xmlns="http://www.w3.org/2000/svg" version="1.1" viewBox="-5.0 -10.0 110.0 135.0">
 <path fill="#FFFFFF" d="m86.688 46.824c-0.83203-2.7773-1.9961-5.4453-3.4609-7.9453 1.3477-1.7617 1.5508-4.2383 0.35938-6.2148-1.9531-3.2383-4.3047-6.2305-6.9922-8.8984-2.6094-2.5938-5.5312-4.8711-8.6797-6.7734-1.9727-1.1914-4.4492-0.98438-6.2109 0.36328-3.4688-2.0312-7.2227-3.4688-11.176-4.2734-3.25-0.66406-6.5781-0.87891-9.8867-0.64453-2.6641 0.1875-4.9102 2.1367-5.4648 4.7383l-0.125 0.57812-1.4609 0.33594c-3.7031 0.85547-7.2695 2.2227-10.594 4.0664-3.6172 2.0039-6.7383 4.6289-8.7188 6.4805-1.9531 1.8203-2.4805 4.7617-1.2852 7.1484 0.72656 1.4492 1.9688 2.5312 3.5078 3.043l11.586 3.8594c0.48828 0.16406 0.99609 0.24219 1.5039 0.24219 0.5 0 1-0.078126 1.4766-0.23438 0.41797 0.83984 1.0859 1.5547 1.9492 2.0352l5.6211 3.125c0.73047 0.40625 1.5234 0.60156 2.3086 0.60156 0.082032 0 0.16406-0.003906 0.25-0.007812 0.19531 0.83203 0.62109 1.6211 1.2695 2.2695l7.3984 7.3984c0.64844 0.64844 1.4336 1.0703 2.2695 1.2695-0.046874 0.86328 0.14453 1.75 0.59375 2.5547l3.1211 5.6172c0.48047 0.86719 1.1992 1.5352 2.0391 1.9531-0.3125 0.96094-0.31641 2.0078 0.007812 2.9805l3.5508 10.648c0.73828 2.2148 2.6172 3.875 4.9062 4.332 0.42969 0.085938 0.85547 0.125 1.2812 0.125 1.9219 0 3.7656-0.84766 5.0195-2.3633 2.4062-2.9062 5.5391-6.9062 6.8008-9.4492 1.6289-3.2734 2.8047-6.7422 3.5-10.328l0.39453-0.078125c2.6367-0.53125 4.6094-2.7773 4.8008-5.457 0.30859-4.4258-0.17969-8.8359-1.4609-13.098zm-56.422-7.4805c-0.19531 0.11328-0.59766 0.27734-1.0938 0.11328l-11.586-3.8594c-0.67188-0.22266-1.2148-0.69531-1.5312-1.3281-0.52344-1.043-0.28906-2.3281 0.5625-3.1211 1.8438-1.7188 4.7344-4.1562 8.043-5.9883 3.0312-1.6797 6.2773-2.9297 9.6484-3.7109l-3.4023 17.008c-0.10547 0.50781-0.44922 0.77344-0.64062 0.88672zm10.031 5.5352-5.6211-3.125c-0.51172-0.28516-0.77734-0.85938-0.66406-1.4336l4.1602-20.797 0.34766-1.6328c0.23828-1.1211 1.2109-1.9609 2.3633-2.0391 3-0.21484 6.0156-0.015624 8.9648 0.58594 3.4023 0.69141 6.6406 1.8984 9.6523 3.5938l-17.465 24.453c-0.39453 0.55469-1.1406 0.72656-1.7383 0.39453zm4.5859 3.4336c-0.46484-0.46484-0.52344-1.1875-0.14062-1.7266l18.617-26.066s0.003906-0.003906 0.003906-0.007812c0.63672-0.89062 1.8633-1.1484 2.7891-0.58984 2.9141 1.7578 5.6211 3.8672 8.0391 6.2695 2.4844 2.4688 4.6641 5.2422 6.4727 8.2383 0.5625 0.92969 0.30469 2.1602-0.58594 2.7969l-26.074 18.625c-0.53516 0.38281-1.2578 0.32031-1.7266-0.14062zm31.508 25.961c-0.87109 1.7539-3.1367 4.8789-6.375 8.793-0.72656 0.87891-1.875 1.2891-3 1.0625l-0.33594 1.6758 0.33594-1.6758c-1.0898-0.21875-1.9844-1.0078-2.3359-2.0625l-3.5469-10.645c-0.16406-0.49609 0-0.89844 0.11328-1.0938 0.11328-0.19531 0.37891-0.53906 0.89453-0.64062l17.148-3.4297c-0.65625 2.7695-1.625 5.4609-2.8984 8.0156zm8.3438-14.582c-0.082031 1.1523-0.92969 2.1172-2.0664 2.3477l-22.402 4.5312c-0.57422 0.11719-1.1484-0.14844-1.4375-0.66406l-3.1211-5.6172c-0.33203-0.59375-0.16406-1.3438 0.39062-1.7383l14.672-10.48 9.7812-6.9883c1.1953 2.1289 2.1562 4.3828 2.8594 6.7227 1.1641 3.8672 1.6094 7.8633 1.3242 11.887z"/></svg>